<?xml version="1.0" encoding="UTF-8"?>
<svg id="Layer_2" xmlns="http://www.w3.org/2000/svg" viewBox="0 0 133.49 60.58">
  <defs>
    <style>
      .cls-1 {
        fill: #fff;
      }
    </style>
  </defs>
  <g id="_Ñëîé_1" data-name="Ñëîé_1">
    <path class="cls-1" d="M7.03,52.61c-1.27-.21-2.56-.44-3.71-1.03-5.76-2.96-3.41-12.53,2.25-15.66,5.66-3.13,12.57-2.32,19.02-2.89,6.45-.57,13.82-3.79,14.82-10.19.75-4.84-2.48-10.14-.16-14.45,1.03-1.91,2.95-3.14,4.88-4.13,10.62-5.47,23.8-5.69,34.6-.57,1.46.69,2.95,1.54,3.78,2.92.78,1.29.88,2.86,1.3,4.31,1.82,6.26,9.21,9.1,15.73,9.34,12.8.48,31.53-1.47,33.77,16.35,1.65,13.17-8.2,17.07-19.04,19.99-31.84,8.58-75.33,1.42-107.24-3.99Z"/>
  </g>
</svg>