<?xml version="1.0" encoding="utf-8"?>
<!-- Generator: Adobe Illustrator 22.0.1, SVG Export Plug-In . SVG Version: 6.00 Build 0)  -->
<svg version="1.1" id="Layer_1" xmlns="http://www.w3.org/2000/svg" xmlns:xlink="http://www.w3.org/1999/xlink" x="0px" y="0px"
	 viewBox="0 0 2000 600" style="enable-background:new 0 0 2000 600;" xml:space="preserve">
<style type="text/css">
	.st0{fill:#44671B;}
</style>
<g>
	<path class="st0" d="M88.2,40.3c-0.2-0.2-0.3-0.3-0.5-0.5c-1.8-2-4.9-2-6.8-0.1l-26,26.1V28c0-2.6-2-4.7-4.6-4.7l0,0
		c-0.1,0-0.2,0-0.3,0s-0.3,0-0.5,0c-2.6,0.1-4.6,2.2-4.6,4.7v37.8L19,40c-1.9-1.9-5-1.9-6.8,0.1c-0.2,0.2-0.3,0.3-0.5,0.5
		c-1.6,1.9-1.5,4.7,0.2,6.5l24.6,24.6c7.3,7.3,19.2,7.3,26.5,0l24.9-24.9C89.7,45,89.9,42.2,88.2,40.3z"/>
</g>
<g>
	<path class="st0" d="M1088.3,340c-0.2-0.2-0.3-0.3-0.5-0.5c-1.8-2-4.9-2-6.8-0.1l-26,26.1v-37.8c0-2.6-2-4.7-4.6-4.7l0,0
		c-0.1,0-0.2,0-0.3,0s-0.3,0-0.5,0c-2.6,0.1-4.6,2.2-4.6,4.7v37.8l-25.9-25.8c-1.9-1.9-5-1.9-6.8,0.1c-0.2,0.2-0.3,0.3-0.5,0.5
		c-1.6,1.9-1.5,4.7,0.2,6.5l24.6,24.6c7.3,7.3,19.2,7.3,26.5,0l24.9-24.9C1089.8,344.7,1090,341.9,1088.3,340z"/>
</g>
</svg>
